PathFileType	4	(X/Y/Z)	C:/Users/beibeiliu/ov580/test_trc/capture2\sequence.27_training_dense_left.trc
DataRate	CameraRate	NumFrames	NumMarkers	Units	OrigDataRate	OrigDataStartFrame	OrigNumFrames
120	120	24	19	mm	120	261	347
Frame#	Time	ThumbCMC			ThumbMCP			ThumbIP			ThumbTip			IndexMCP			IndexPIP			IndexTip			MiddleMCP			MiddlePIP			MiddleTip			RingMCP			RingPIP			RingTip			PinkyMCP			PinkyPIP			PinkyTip			BackHand1			BackHand2			BackHand3	
		X0	Y0	Z0	X1	Y1	Z1	X2	Y2	Z2	X3	Y3	Z3	X4	Y4	Z4	X5	Y5	Z5	X6	Y6	Z6	X7	Y7	Z7	X8	Y8	Z8	X9	Y9	Z9	X10	Y10	Z10	X11	Y11	Z11	X12	Y12	Z12	X13	Y13	Z13	X14	Y14	Z14	X15	Y15	Z15	X16	Y16	Z16	X17	Y17	Z17	X18	Y18	Z18	
260	2.16667	-123.512	59.8859	33.114	-105.171	64.5336	11.2908	-99.115	68.378	-14.6876	-95.8948	66.4191	-36.237	-121.456	52.2773	-39.0267	-100.101	34.5284	-38.4543	-97.8383	32.2883	-3.45283	-130.718	35.9981	-39.8625	-104.882	18.3806	-32.9449	-112.801	26.4792	5.53771	-136.95	19.8905	-33.9119	-112.102	6.9882	-21.2245	-123.378	18.169	9.62159	-142.244	2.3916	-27.3451	-121.741	-3.56072	-11.1823	-129.866	15.3888	18.437	-175.873	31.6644	5.675	-176.95	33.3829	36.6158	-159.108	57.1351	23.4948	
261	2.175	-126.096	60.8016	36.4321	-106.83	65.7277	11.4826	-101.815	68.9782	-17.4555	-98.318	68.167	-39.2434	-121.459	57.3363	-38.258	-96.1348	39.3437	-35.658	-102.478	33.6248	-2.70942	-131.036	35.7539	-40.9862	-105.875	17.7447	-30.4909	-113.709	23.9568	3.10173	-138.598	17.0681	-33.9947	-112.179	4.63065	-17.8272	-123.125	20.2212	10.1592	-145.338	3.75853	-25.7713	-121.397	-2.52817	-9.42177	-130.738	15.3182	16.9824	-174.263	31.3288	2.48371	-178.934	30.75	34.1943	-159.444	61.8233	24.185	
262	2.18333	-128.615	62.4037	35.9343	-112.226	65.0718	10.3389	-102.89	70.6535	-11.4866	-99.5159	69.5399	-42.0457	-126.012	54.3089	-38.6729	-97.5373	42.1735	-34.6797	-104.233	36.3119	-0.753279	-133.786	36.4599	-38.178	-104.885	22.3704	-30.974	-115.706	26.4874	5.50084	-136.805	16.4209	-34.1433	-111.599	7.98762	-16.5295	-122.445	21.7559	10.106	-142.713	0.70218	-26.8121	-119.204	-1.36372	-5.59899	-127.041	12.6673	18.6237	-175.406	32.8749	7.24219	-179.85	28.9878	39.8319	-163.12	56.1384	25.0318	
263	2.19167	-128.929	66.5017	36.6522	-111.163	70.7031	9.6967	-103.457	73.223	-15.6174	-101.635	68.645	-39.0662	-126.46	57.6983	-37.6947	-99.1836	42.9013	-34.5426	-100.828	40.881	-2.60799	-134.184	36.3396	-37.8987	-104.561	22.6395	-28.3925	-116.087	30.6057	8.43522	-136.177	20.0247	-33.3361	-111.781	8.82659	-18.7307	-122.444	23.9999	10.6383	-142.938	2.98195	-23.5709	-117.772	2.99865	-6.38849	-128.676	15.5707	20.663	-175.751	27.1302	5.89316	-178.52	27.173	39.9549	-163.323	59.3128	21.6123	
264	2.2	-132.689	63.3965	35.9969	-112.858	68.8204	14.634	-104.203	73.8444	-17.0114	-100.465	69.9882	-37.1718	-130.03	54.3502	-37.9416	-101.66	47.1373	-38.1394	-100.587	41.3075	-3.96281	-132.096	32.3007	-39.7699	-104.107	26.6624	-28.3466	-112.583	33.4656	6.53097	-137.107	16.7954	-31.9824	-109.468	14.0254	-16.8874	-122.035	25.3204	10.6085	-138.288	0.574078	-23.8072	-115.982	1.22856	-7.63126	-125.636	15.3703	17.4652	-174.004	28.2776	6.7168	-177.465	26.3366	37.4463	-167.403	56.6073	24.9754	
265	2.20833	-132.945	67.2746	31.0857	-114.398	68.6911	12.877	-104.153	75.817	-13.0104	-101.766	68.7737	-37.3149	-133.169	55.4013	-35.6177	-100.661	45.8317	-34.612	-102.264	42.5921	-4.40201	-133.853	35.7515	-37.593	-105.436	24.5766	-29.3138	-113.729	32.9419	7.44194	-132.574	18.4988	-32.4563	-108.906	11.7295	-14.0293	-121.592	24.2771	11.9847	-138.827	1.02516	-22.7885	-114.598	4.63198	-3.08479	-128.021	17.3158	21.0369	-176.774	25.4483	7.81591	-179.296	25.7455	36.2202	-167.843	58.1747	23.3219	
266	2.21667	-133.748	67.2893	30.4716	-115.08	68.8551	9.87494	-104.242	74.2544	-13.8962	-100.604	66.8012	-38.5122	-133.534	55.1465	-36.762	-102.124	48.5452	-37.7892	-102.03	45.4013	-4.07948	-133.637	32.2424	-37.9387	-103.371	26.8032	-26.8272	-115.364	35.1436	10.391	-133.08	18.2677	-31.8056	-107.76	13.8524	-14.0552	-125.865	25.4926	16.7107	-134.269	2.24054	-22.2571	-112.063	4.18501	-1.32006	-126.078	19.1794	22.0765	-175.948	25.0043	4.53209	-177.381	21.2244	38.4881	-168.251	55.48	24.0733	
267	2.225	-134.743	66.9288	30.6431	-112.958	71.3217	8.78409	-102.801	70.7757	-12.7787	-96.5332	65.242	-39.8475	-134.163	57.0485	-37.4548	-101.407	49.2597	-33.1671	-109.099	45.0524	0.288762	-129.753	33.3857	-38.8959	-103.242	29.0277	-27.0029	-112.866	37.4701	9.70498	-133.019	14.1992	-30.4932	-105.812	16.9247	-10.8081	-121.894	24.9234	15.8751	-134.154	3.01818	-21.0146	-111.131	6.22395	-1.98275	-124.44	18.1949	24.1178	-175.75	17.7497	5.85947	-176.301	18.6193	40.3234	-169.087	51.2712	23.9445	
268	2.23333	-136.553	67.0411	31.4964	-114.667	66.8896	9.00207	-100.801	71.5029	-17.6789	-95.41	61.1395	-36.7659	-130.561	58.1168	-38.811	-103.334	50.5613	-35.534	-111.829	45.8115	1.57723	-130.898	31.0348	-38.0492	-101.63	28.4349	-22.6989	-110.537	35.671	8.25976	-129.659	12.5991	-29.4305	-105.773	18.051	-11.6185	-120.544	25.5721	14.6079	-130.262	-2.73335	-20.1701	-109.824	7.39485	-1.39433	-127.849	19.611	24.2357	-174.911	15.4601	6.83369	-175.983	18.4831	41.4383	-171.895	47.4506	19.9981	
269	2.24167	-136.572	68.4063	33.1265	-112.583	69.677	8.03306	-101.392	69.2615	-14.5725	-94.6784	55.9477	-40.9831	-134.409	55.853	-36.5282	-103.757	48.2904	-34.4648	-109.829	46.3544	-0.593515	-134.002	28.6689	-36.3546	-102.704	27.6933	-28.1425	-109.808	33.7007	8.05861	-127.073	16.2787	-30.1435	-103.844	19.4539	-8.55848	-124.713	24.9063	18.9471	-131.502	-2.54483	-18.8135	-108.501	6.3758	0.167809	-123.269	16.6796	25.046	-171.649	14.3912	8.77755	-176.622	19.8605	39.8572	-170.145	49.9482	24.3517	
270	2.25	-138.751	62.5558	32.3192	-114.261	69.242	7.68171	-102.51	70.0723	-16.1411	-98.8029	52.9211	-37.0022	-133.626	54.3374	-38.7687	-103.622	45.8014	-36.1792	-104.941	43.1926	-2.95436	-129.217	30.7717	-38.8508	-100.659	27.0862	-28.6266	-110.602	34.9698	9.36377	-126.895	14.2189	-29.045	-101.905	13.9129	-10.4936	-123.753	27.336	17.9806	-130.504	-3.37283	-17.5036	-107.488	6.52089	-2.07253	-124.91	18.4375	28.3534	-171.088	13.0315	7.93093	-174.018	16.3657	40.0669	-172.165	46.5682	22.656	
271	2.25833	-140.22	64.6025	33.1418	-120.451	71.4773	6.43381	-112.232	68.0197	-18.5589	-113.896	39.9877	-28.3593	-129.963	54.1351	-39.7428	-100.025	49.4413	-37.7213	-95.7506	43.4672	-3.29463	-127.114	28.4735	-39.4575	-98.4963	30.1745	-31.5201	-102.305	34.6265	4.90957	-126.361	13.6689	-27.061	-100.504	18.7228	-9.18011	-119.858	24.524	17.8001	-126.958	-1.02135	-16.5869	-105.187	6.77593	4.75406	-127.113	18.4898	26.295	-169.613	11.3082	4.79941	-175.416	16.9872	38.874	-168.621	45.5518	20.7809	
272	2.26667	-140.818	65.307	36.1021	-124.71	68.3903	9.64554	-118.084	56.4555	-21.667	-118.522	32.6467	-24.2374	-132.779	49.0865	-37.3661	-102.627	49.4115	-40.1272	-91.5404	44.3342	-8.39758	-128.055	28.8401	-40.0471	-96.9236	27.6725	-29.2101	-99.3175	36.0852	2.60823	-121.743	14.353	-28.3303	-98.9772	18.8655	-12.4469	-117.95	27.805	16.3088	-126.458	-3.17153	-16.9402	-103.556	6.61568	3.11294	-121.788	15.4857	26.3181	-169.938	10.2967	8.93098	-175.636	16.8782	40.3271	-169.155	45.6187	23.2294	
273	2.275	-142.573	64.9123	32.9208	-124.394	67.6268	9.04305	-119.632	52.0238	-17.6969	-119.921	27.2074	-20.1342	-134.317	53.9343	-36.2961	-101.87	52.2546	-39.3566	-91.276	51.2678	-6.70516	-129.999	30.4414	-38.2899	-98.218	27.7122	-34.087	-97.0032	37.5885	2.52408	-121.078	11.3811	-29.6868	-98.0532	19.5465	-14.2024	-117.145	27.5932	17.1977	-125.66	-1.66316	-16.7825	-101.927	7.12738	4.0526	-118.8	20.3242	25.706	-169.508	10.4122	8.81654	-174.517	14.8502	40.0533	-169.931	41.6302	21.9083	
274	2.28333	-142.565	62.1043	34.107	-123.846	68.9693	7.1443	-117.981	53.8351	-21.1282	-119.728	24.3504	-20.9873	-133.053	48.7288	-36.2437	-102.47	49.1165	-38.3853	-93.2097	48.9302	-4.52348	-129.729	30.4505	-39.1952	-97.0959	33.8541	-33.0244	-96.0797	38.6663	2.44623	-122.135	10.686	-29.3441	-96.904	16.9759	-14.0137	-112.282	26.0685	15.8917	-121.374	-3.49769	-16.9691	-101.459	6.91625	2.90217	-120.39	20.1016	27.5272	-167.07	12.779	7.15041	-173.185	14.9319	35.8428	-171.986	42.9049	23.7535	
275	2.29167	-143.651	65.7955	33.0879	-125.069	68.2594	6.39106	-119.9	52.4647	-20.8641	-122.667	19.3353	-16.7315	-134.703	51.8653	-37.6384	-100.727	51.9518	-36.7761	-93.4831	50.888	-4.84072	-128.061	29.2642	-38.85	-96.9495	34.5296	-31.3207	-98.4619	35.0023	4.67788	-125.665	13.6275	-29.2783	-96.5085	17.8838	-14.8627	-112.084	29.2621	16.13	-123.987	-0.586504	-16.6644	-101.665	10.2709	0.509223	-121.548	21.0012	25.154	-166.534	8.63847	8.0434	-174.93	11.346	36.5598	-171.305	43.7605	20.6763	
276	2.3	-144.637	61.7608	35.1293	-126.406	66.0939	5.72029	-121.522	49.9019	-16.2562	-124.595	20.3367	-13.5527	-133.955	50.7639	-39.7901	-106.211	49.218	-41.9253	-95.9673	50.7311	-9.57515	-129.444	29.2138	-39.7246	-98.6418	32.5747	-33.1116	-97.0646	38.3645	4.77635	-125.022	9.86329	-29.0186	-96.903	15.7805	-17.5196	-106.487	28.8884	12.7462	-120.181	-1.295	-17.0226	-99.719	7.75953	0.676925	-118.951	21.0683	26.3568	-168.832	10.1512	8.18897	-173.911	12.426	37.3988	-173.936	43.6245	22.0494	
277	2.30833	-143.702	63.8973	35.6404	-126.467	63.0509	6.48719	-120.938	44.8687	-15.9005	-123.918	17.7125	-11.9138	-136.303	48.8596	-40.4188	-106.709	50.978	-41.3952	-100.94	55.0029	-7.74652	-132.383	28.1393	-37.9752	-100.778	30.7892	-36.2886	-95.4601	37.8849	3.62238	-126.325	12.9275	-31.3764	-97.0157	14.8759	-20.6273	-105.886	31.0579	10.6307	-122.621	-1.81149	-16.3327	-101.678	13.4658	-1.64646	-115.676	22.1871	27.1034	-166.965	6.76436	9.83277	-173.266	12.802	40.0874	-171.573	40.3388	20.1358	
278	2.31667	-143.986	64.5095	34.7148	-123.85	64.4388	2.6414	-120.025	43.1327	-19.3026	-124.318	12.4337	-12.67	-139.792	49.1623	-42.018	-109.865	49.8353	-42.6174	-105.75	55.2289	-9.97429	-132.957	30.7916	-39.5672	-99.7342	32.1011	-36.5769	-93.5032	37.9873	-0.621832	-127.052	9.55874	-30.6136	-96.8526	16.529	-20.8085	-101.188	28.6018	9.43618	-122.63	-5.359	-16.13	-100.828	14.0902	-2.7319	-113.017	24.2553	21.4404	-165.724	5.49638	10.6629	-174.374	12.7965	41.3013	-172.329	42.0888	19.8474	
279	2.325	-144.732	64.7379	31.6143	-125.072	60.6788	5.18411	-118.085	41.6967	-21.1786	-122.606	12.475	-13.0638	-141.19	46.1298	-42.7572	-112.732	50.8106	-45.3447	-112.191	53.9724	-9.90539	-130.914	26.9324	-40.4278	-100.019	31.0038	-36.8775	-91.4903	37.938	-2.24964	-125.94	8.808	-32.0554	-96.1864	17.0636	-22.1987	-101.284	30.2963	7.4383	-121.815	-4.76078	-15.9921	-98.1871	7.53358	-6.15912	-109.219	20.6931	22.8018	-166.462	9.42331	7.9	-173.67	8.63158	40.1458	-175.304	39.8208	23.2155	
280	2.33333	-146.004	64.4235	32.9186	-125.611	62.1508	3.03553	-121.521	41.0582	-17.1429	-120.856	15.6465	-17.2349	-144.492	43.5821	-40.2121	-114.829	43.2119	-46.1718	-111.716	51.1963	-13.6504	-134.236	28.4044	-39.9958	-104.123	29.1176	-40.9001	-91.1319	40.4742	-5.726	-130.333	6.80937	-30.4771	-97.7556	18.3514	-25.033	-99.966	27.5188	7.32583	-123.308	-6.35566	-16.4795	-97.7495	7.4853	-6.45145	-107.523	22.011	20.2081	-167.022	5.59487	10.9282	-173.012	6.99905	44.8861	-174.509	36.2801	24.5719	
281	2.34167	-145.348	60.5279	31.2063	-123.238	62.8735	2.57759	-115.421	47.0175	-16.6403	-118.157	18.9771	-17.8211	-144.628	42.3423	-39.2712	-113.446	45.9066	-45.8492	-113.628	50.982	-12.516	-135.049	25.717	-42.4522	-103	27.986	-40.4366	-93.082	32.6727	-8.2224	-129.156	7.00896	-33.4038	-99.6884	11.4385	-27.978	-102.419	28.7617	3.26903	-125.782	-11.0618	-15.0396	-99.6175	7.38428	-10.2726	-107.811	20.7063	18.8346	-165.8	6.0885	11.2496	-172.519	8.43113	43.6951	-173.07	36.6507	23.5171	
282	2.35	-142.149	63.7276	26.9357	-114.468	60.9078	10.344	-99.4934	52.1264	-12.8203	-99.666	20.8005	-23.5833	-143.944	43.2039	-43.1707	-115.932	45.7747	-47.6826	-112.187	49.7376	-12.1369	-139.048	19.2678	-43.3841	-109.274	26.0324	-46.1605	-101.614	31.8385	-12.7703	-133.647	5.61856	-35.5444	-104.277	12.3446	-31.7595	-106.394	22.358	3.07681	-127.136	-8.58212	-19.0706	-99.0474	2.64384	-12.9362	-105.145	19.7202	13.1642	-169.114	6.1495	11.2044	-171.791	6.39935	43.8666	-175.727	39.5874	21.3791	
283	2.35833	-141.93	60.3744	29.0087	-111.453	57.5054	7.3967	-97.0796	47.4482	-12.2426	-94.3883	22.8555	-24.3666	-145.369	42.3781	-40.2439	-116.563	42.6713	-49.4781	-107.826	47.553	-14.5906	-142.304	20.0952	-44.1916	-113.108	20.1176	-48.6215	-104.011	30.1892	-14.6212	-136.422	-0.0716321	-33.8679	-105.513	6.36432	-34.3929	-105.975	20.9925	-3.64119	-128.35	-11.9141	-18.7813	-100.943	-3.46589	-17.4055	-99.9847	17.3879	7.34934	-168.189	2.0377	14.609	-172.971	12.1976	43.2217	-175.309	39.6417	20.4899	
